<svg width="22" height="23" viewBox="0 0 22 23" fill="none" xmlns="http://www.w3.org/2000/svg">
<path fill-rule="evenodd" clip-rule="evenodd" d="M21.9231 11.2811C21.9231 17.3351 17.0155 22.2427 10.9615 22.2427C4.90758 22.2427 0 17.3351 0 11.2811C0 5.22717 4.90758 0.31958 10.9615 0.31958C17.0155 0.31958 21.9231 5.22717 21.9231 11.2811Z" fill="#FFC246"/>
<path fill-rule="evenodd" clip-rule="evenodd" d="M15.8686 9.78406C16.0952 8.24448 14.9346 7.41227 13.3414 6.85746L13.8564 4.77694L12.5722 4.451L12.0641 6.4899L11.0614 6.24717L11.5627 4.20134L10.306 3.88232L9.79088 5.96284L7.24991 5.33869L6.94087 6.69795C6.94087 6.69795 7.87485 6.91294 7.85424 6.92681C8.20911 6.98025 8.46344 7.30053 8.43799 7.66193L7.06448 13.3903C7.02814 13.508 6.94691 13.6064 6.8387 13.6637C6.73049 13.7209 6.60418 13.7324 6.48762 13.6954L5.50556 13.4597L4.88062 14.916L6.52195 15.3321L7.42159 15.5679L6.89966 17.6484L8.15642 17.9605L8.67148 15.88L9.68787 16.1713L9.17281 18.2518L10.4365 18.5708L10.9583 16.4556C13.1079 16.8717 14.7217 16.7053 15.4016 14.7427C15.951 13.1614 15.4016 12.246 14.2479 11.6565C15.1461 11.4758 15.8115 10.7072 15.8686 9.78406ZM12.9911 13.8619C12.5997 15.4431 9.96257 14.5554 9.11101 14.375L9.79775 11.601C10.6287 11.7883 13.3689 12.2044 12.9637 13.8619H12.9911ZM13.3757 9.76325C13.0255 11.1988 10.8278 10.4567 10.1205 10.2904L10.718 7.75209C11.4322 7.93239 13.7191 8.26528 13.3483 9.76325H13.3757Z" fill="white"/>
</svg>
